<svg width="24" height="24" viewBox="0 0 24 24" xmlns="http://www.w3.org/2000/svg" aria-hidden="true"><title>Global Icon</title><path fill-rule="evenodd" clip-rule="evenodd" d="M15.8793 19.5651C17.46 18.753 18.7529 17.46 19.5651 15.8794C18.5403 16.1207 17.5008 16.3118 16.4528 16.4528C16.3118 17.5008 16.1206 18.5403 15.8793 19.5651ZM19.8134 14.2736L20.2208 14.1689C20.403 13.4765 20.5 12.7496 20.5 12C20.5 11.2504 20.403 10.5235 20.2208 9.83106L19.8134 9.72642C18.7655 9.45727 17.6996 9.24377 16.6232 9.0859C16.7922 11.0224 16.7922 12.9776 16.6232 14.9141C17.6996 14.7562 18.7655 14.5427 19.8134 14.2736ZM16.4528 7.54722C16.3118 6.49917 16.1206 5.45969 15.8793 4.43487C17.46 5.24704 18.7529 6.54002 19.5651 8.12064C18.5403 7.87934 17.5008 7.6882 16.4528 7.54722ZM14.9141 7.37674C12.9776 7.20775 11.0223 7.20775 9.08591 7.37674C9.24377 6.30033 9.45727 5.23447 9.72642 4.18659L9.83105 3.77922C10.5235 3.59703 11.2504 3.5 12 3.5C12.7496 3.5 13.4765 3.59703 14.1689 3.77922L14.2736 4.18659C14.5427 5.23447 14.7562 6.30033 14.9141 7.37674ZM8.90024 8.90023C10.9583 8.69992 13.0417 8.69992 15.0997 8.90024C15.3001 10.9583 15.3001 13.0417 15.0997 15.0998C13.0417 15.3001 10.9583 15.3001 8.90024 15.0998C8.69992 13.0417 8.69992 10.9583 8.90024 8.90023ZM7.54722 7.54721C7.6882 6.49917 7.87934 5.4597 8.12063 4.43489C6.54003 5.24705 5.24705 6.54002 4.43489 8.12063C5.4597 7.87933 6.49918 7.6882 7.54722 7.54721ZM3.77923 9.83104L4.18656 9.72642C5.23445 9.45727 6.30032 9.24376 7.37675 9.0859C7.20775 11.0223 7.20775 12.9776 7.37674 14.9141C6.30032 14.7562 5.23445 14.5427 4.18656 14.2736L3.77923 14.169C3.59703 13.4766 3.5 12.7496 3.5 12C3.5 11.2504 3.59703 10.5234 3.77923 9.83104ZM7.54722 16.4528C6.49918 16.3118 5.4597 16.1207 4.43489 15.8794C5.24705 17.46 6.54002 18.753 8.12063 19.5651C7.87934 18.5403 7.6882 17.5008 7.54722 16.4528ZM14.9141 16.6233C12.9776 16.7922 11.0223 16.7922 9.0859 16.6233C9.24377 17.6997 9.45727 18.7655 9.72642 19.8134L9.83105 20.2208C10.5235 20.403 11.2504 20.5 12 20.5C12.7496 20.5 13.4765 20.403 14.1689 20.2208L14.2736 19.8134C14.5427 18.7655 14.7562 17.6997 14.9141 16.6233ZM22 12C22 17.5228 17.5228 22 12 22C6.47715 22 2 17.5228 2 12C2 6.47715 6.47715 2 12 2C17.5228 2 22 6.47715 22 12Z" fill="#000000"></path></svg>