<svg xmlns="http://www.w3.org/2000/svg" width="100" height="46" fill="none" aria-hidden="true"><path fill="#002A3A" d="M34.88 0H0v13.4h34.88zM63.739 16.262H0v13.4h63.739zM43.906 32.524H0v13.4h43.906z"></path><path fill="#2AD2C9" d="M4.751 2.438h6.714v1.643H9.051v6.873H7.165V4.081H4.751zM18.793 7.516h-3.021v3.438h-1.89V2.438h1.89v3.435h3.021V2.438h1.89v8.516h-1.89zM23.572 2.438h5.944v1.643h-4.058v1.792h3.447v1.643h-3.447v1.802h4.058v1.636h-5.944zM5.177 18.7h1.889v6.88h4.058v1.647H5.177zM20.28 24.256c0 2.046-1.341 3.092-3.411 3.092s-3.377-1.046-3.377-3.092v-2.584c0-2.046 1.342-3.095 3.412-3.095s3.387 1.06 3.387 3.095zm-1.888-2.584c0-.964-.597-1.448-1.498-1.448-.902 0-1.524.484-1.524 1.448v2.584c0 .96.597 1.448 1.499 1.448s1.523-.487 1.523-1.448zM24.921 22.17v5.057h-1.889V18.7h1.776l3.145 5.054V18.7h1.871v8.527H28.05zM39.517 24.132c0 2.046-1.342 3.095-3.412 3.095h-3.387V18.7h3.412c2.045 0 3.387 1.06 3.387 3.092zm-1.882-2.34c0-.96-.596-1.449-1.498-1.449h-1.53v5.237h1.498c.927 0 1.523-.487 1.523-1.448zM48.944 24.256c0 2.046-1.342 3.092-3.412 3.092s-3.387-1.06-3.387-3.092v-2.584c0-2.046 1.342-3.095 3.412-3.095s3.387 1.06 3.387 3.095zm-1.89-2.584c0-.964-.596-1.448-1.497-1.448s-1.53.484-1.53 1.448v2.584c0 .96.596 1.448 1.498 1.448.901 0 1.523-.487 1.523-1.448zM53.584 22.17v5.057h-1.889V18.7h1.776l3.145 5.054V18.7h1.886v8.527h-1.776zM5.422 34.962H8.93c1.775 0 2.925.827 2.925 2.827s-1.146 2.849-2.925 2.849H7.31v2.827H5.423zm1.889 4.043h1.566c.632 0 1.036-.29 1.036-1.205s-.415-1.194-1.036-1.194H7.31zM20.845 43.489h-2.027l-.569-1.792h-2.886l-.547 1.802h-1.864l2.79-8.526h2.312zm-4.97-3.449h1.878l-.938-3.067zM26.569 40.214l-1.42-.244c-1.463-.258-2.34-1.1-2.34-2.438 0-1.813 1.256-2.693 3.277-2.693s3.277.88 3.277 2.597v.205h-1.871v-.205c0-.636-.512-.95-1.389-.95-.876 0-1.327.254-1.327.911 0 .453.355.757.866.841l1.399.244c1.537.269 2.34 1.096 2.34 2.424 0 1.827-1.254 2.704-3.277 2.704s-3.278-.877-3.278-2.594v-.209h1.89v.209c0 .632.51.95 1.387.95s1.328-.243 1.328-.925c0-.463-.351-.757-.862-.827M35.633 40.214l-1.399-.244c-1.462-.258-2.34-1.1-2.34-2.438 0-1.813 1.254-2.693 3.278-2.693s3.277.88 3.277 2.597v.205H36.57v-.205c0-.636-.512-.95-1.389-.95s-1.328.254-1.328.911c0 .453.355.757.863.841l1.42.244c1.534.269 2.34 1.096 2.34 2.424 0 1.827-1.257 2.704-3.277 2.704s-3.277-.877-3.277-2.594v-.209h1.889v.209c0 .632.511.95 1.388.95s1.328-.243 1.328-.925c-.028-.463-.383-.757-.895-.827M41.037 33.496a1.57 1.57 0 0 1 1.446.956 1.55 1.55 0 0 1-.335 1.695 1.565 1.565 0 0 1-2.67-1.093c.002-.412.167-.806.459-1.098a1.58 1.58 0 0 1 1.1-.46m0 2.728a1.18 1.18 0 0 0 1.092-.723 1.17 1.17 0 0 0-.255-1.28 1.18 1.18 0 0 0-2.012.833 1.165 1.165 0 0 0 .73 1.083q.218.087.452.087zm-.56-1.916h.71a.47.47 0 0 1 .482.48.454.454 0 0 1-.33.45l.383.537h-.43l-.319-.498h-.117v.498h-.355zm.816.48c0-.155-.117-.183-.231-.183h-.216v.354h.216c.124.024.245-.018.245-.17z"></path><path fill="#002A3A" d="M50.115 37.304q.765 0 1.387.372.63.372 1 1 .372.623.372 1.387 0 .57-.215 1.073a2.8 2.8 0 0 1-1.476 1.471 2.7 2.7 0 0 1-1.068.215q-.65 0-1.12-.309a2.2 2.2 0 0 1-.743-.806v.98h-.733v-7.854h.733v3.587q.271-.497.743-.807.47-.309 1.12-.309m-.005 4.801q.56 0 1.016-.272a2.1 2.1 0 0 0 .727-.744q.272-.465.272-1.026 0-.576-.277-1.036a2.1 2.1 0 0 0-.738-.738 1.9 1.9 0 0 0-1-.273q-.555 0-.963.278a1.83 1.83 0 0 0-.623.743q-.215.466-.215 1.026 0 .57.22 1.037a1.8 1.8 0 0 0 .623.733q.408.272.958.272M57.167 37.451h.774l-2.863 7.853h-.78l.953-2.618-1.88-5.235h.801l1.445 4.225zM65.058 42.822q-.764 0-1.424-.298a3.6 3.6 0 0 1-1.141-.822 4 4 0 0 1-.764-1.215 4 4 0 0 1-.273-1.476q0-.827.294-1.518a3.77 3.77 0 0 1 1.973-1.984q.654-.278 1.361-.278.791 0 1.534.372.75.366 1.32 1.136l-1.142.613a2.26 2.26 0 0 0-.806-.64 2.12 2.12 0 0 0-1.806-.025q-.42.188-.749.534a2.5 2.5 0 0 0-.513.806 2.6 2.6 0 0 0-.188 1.01q0 .519.183.98.183.455.503.8.324.34.748.534a2.17 2.17 0 0 0 1.545.094q.313-.105.586-.298.278-.194.492-.471.22-.278.367-.628h-1.335v-1.116h2.837a3.8 3.8 0 0 1-.251 1.503 3.9 3.9 0 0 1-.77 1.24q-.497.54-1.157.844t-1.424.303M71.933 42.822q-.722 0-1.32-.372a2.8 2.8 0 0 1-.947-.994 2.8 2.8 0 0 1-.35-1.388q0-.575.204-1.073.204-.502.56-.88.36-.381.838-.596a2.44 2.44 0 0 1 1.015-.215q.723 0 1.314.372.597.372.948 1 .356.629.356 1.392 0 .57-.204 1.069a2.8 2.8 0 0 1-.566.879 2.6 2.6 0 0 1-.832.592 2.4 2.4 0 0 1-1.016.214m0-1.277a1.2 1.2 0 0 0 .686-.204q.303-.204.476-.54.178-.334.178-.733 0-.408-.183-.743a1.4 1.4 0 0 0-.487-.54 1.18 1.18 0 0 0-.67-.203q-.377 0-.68.204a1.46 1.46 0 0 0-.482.544 1.6 1.6 0 0 0-.178.739q0 .413.183.748.184.335.487.534.31.195.67.194M81.557 42.822q-.743 0-1.398-.293a3.7 3.7 0 0 1-1.151-.822 4 4 0 0 1-.775-1.21 3.9 3.9 0 0 1-.278-1.475 3.9 3.9 0 0 1 .278-1.477q.282-.69.775-1.21a3.6 3.6 0 0 1 1.151-.816 3.3 3.3 0 0 1 1.398-.298q.89 0 1.639.413.748.409 1.24 1.094l-1.14.613a2.3 2.3 0 0 0-.77-.613 2.1 2.1 0 0 0-.969-.23q-.48 0-.906.2-.423.193-.743.544-.32.345-.497.806a2.7 2.7 0 0 0-.178.974q0 .523.178.979.183.455.502.806.32.345.739.544.423.195.905.194.524 0 .974-.23.456-.236.764-.618l1.141.617a3.75 3.75 0 0 1-1.24 1.095q-.75.413-1.639.413M85.464 37.451h1.278v5.235h-1.278zm.65-.675a.67.67 0 0 1-.477-.184.63.63 0 0 1-.194-.47q0-.279.194-.467a.65.65 0 0 1 .471-.188q.277 0 .466.188.195.189.194.466a.64.64 0 0 1-.189.471.64.64 0 0 1-.466.184M90.886 38.728h-1.015v3.958h-1.278v-3.958h-.774v-1.277h.774v-1.644h1.278v1.644h1.015zM95.3 37.451h1.356l-2.864 7.853h-1.355l.947-2.618-1.885-5.235h1.398l1.126 3.486z"></path></svg>
