<svg xmlns="http://www.w3.org/2000/svg" viewBox="0 0 24 24" height="24" width="24" aria-hidden="true"><title>Shopping Cart Icon</title><path fill-rule="evenodd" clip-rule="evenodd" d="M2.81256 2.25002C2.39835 2.25002 2.06256 2.5858 2.06256 3.00002C2.06256 3.41423 2.39835 3.75002 2.81256 3.75002H5.2205L6.01602 7.08295C6.01827 7.09339 6.02075 7.10374 6.02343 7.11401L7.5599 13.5513C7.68809 14.1783 8.03098 14.7411 8.52971 15.1425C9.03046 15.5456 9.65652 15.7605 10.2991 15.75H17.3933C18.0359 15.7605 18.6619 15.5456 19.1627 15.1425C19.6636 14.7393 20.0073 14.1733 20.1342 13.543L21.5329 7.08246C21.5809 6.86082 21.526 6.62937 21.3837 6.45287C21.2413 6.27636 21.0267 6.17376 20.7999 6.17376H7.34114L6.54207 2.82589C6.46148 2.48824 6.1597 2.25002 5.81256 2.25002H2.81256ZM9.02198 13.2159L7.69917 7.67376H19.8701L18.6668 13.2313L18.6643 13.2439C18.6071 13.5317 18.4506 13.7901 18.2221 13.9741C17.9935 14.1581 17.7076 14.2558 17.4143 14.2502L17.3999 14.25H10.2925L10.2781 14.2502C9.98479 14.2558 9.69884 14.1581 9.47031 13.9741C9.24179 13.7901 9.08525 13.5316 9.0281 13.2439C9.02624 13.2345 9.0242 13.2252 9.02198 13.2159ZM10.5 20.5C11.0523 20.5 11.5 20.0523 11.5 19.5C11.5 18.9477 11.0523 18.5 10.5 18.5C9.94772 18.5 9.5 18.9477 9.5 19.5C9.5 20.0523 9.94772 20.5 10.5 20.5ZM13 19.5C13 20.8807 11.8807 22 10.5 22C9.11929 22 8 20.8807 8 19.5C8 18.1193 9.11929 17 10.5 17C11.8807 17 13 18.1193 13 19.5ZM17.5 20.5C18.0523 20.5 18.5 20.0523 18.5 19.5C18.5 18.9477 18.0523 18.5 17.5 18.5C16.9477 18.5 16.5 18.9477 16.5 19.5C16.5 20.0523 16.9477 20.5 17.5 20.5ZM20 19.5C20 20.8807 18.8807 22 17.5 22C16.1193 22 15 20.8807 15 19.5C15 18.1193 16.1193 17 17.5 17C18.8807 17 20 18.1193 20 19.5Z" fill="#000000"></path></svg>